<?xml version="1.0" encoding="UTF-8"?>
<svg version="1.1" viewBox="0 0 2048 2048" width="512" height="512" xmlns="http://www.w3.org/2000/svg">
<path transform="translate(365)" d="m0 0h1317l38 6 24 5 25 7 20 7 25 10 17 8 23 13 19 12 19 14 11 9 13 11 16 15 8 8 7 8 12 14 10 13 12 17 13 21 13 24 10 22 11 29 8 28 7 34 5 34v1308l-6 41-7 33-9 29-9 24-12 26-13 23-11 18-13 18-13 16-12 14-27 27-11 9-12 10-18 13-22 14-22 12-25 12-29 11-27 8-27 6-36 6-8 1h-1308l-34-5-31-6-26-7-26-9-25-11-16-8-15-8-24-15-19-14-11-9-15-13-28-28-9-11-10-12-13-18-14-22-12-22-11-23-10-26-7-22-7-28-6-36-2-15v-1316l7-42 7-30 12-36 10-24 8-16 9-17 13-21 13-18 11-14 11-13 7-7 7-8 11-11 8-7 14-12 17-13 21-14 15-9 20-11 29-13 28-10 30-8 31-6z" fill="#0279FD"/>
<path transform="translate(696,684)" d="m0 0h51l27 3 23 4 20 5 19 6 20 8 16 8 14 8 14 10 11 9 11 11 10 14 6 13 3 11 1 14-2 13-4 12-8 13-10 10-15 8-17 5-6 1h-11l-16-3-15-6-18-10-13-8-21-11-16-6-22-5-26-2-21 2-23 5-22 8-16 8-12 7-14 10-11 10-5 4-7 8-13 16-12 19-8 15-8 20-6 21-4 23-2 20v20l2 19 4 21 6 21 6 15 9 19 10 16 10 13 9 11 13 13 16 12 19 12 17 8 21 7 18 4 17 2h23l20-3 23-6 15-6 17-8 14-9 11-9 10-9 11-14 8-13 7-16 5-16 1-6-21 1-81-1-12-3-16-8-12-11-8-13-4-14v-20l3-10 5-10 11-12 11-8 12-5 15-3h164l16 2 18 6 10 6 10 9 7 9 8 17 4 18 1 12v13l-2 24-5 30-7 27-10 27-9 19-14 24-14 19-10 11-7 8-12 12-8 7-17 13-15 10-17 10-24 11-21 8-25 7-24 5-34 4-26 1-25-2-32-5-26-6-33-11-25-11-25-13-14-9-17-12-16-13-14-12-20-20-9-11-10-12-12-17-11-18-10-18-12-27-11-33-6-27-4-27-2-25v-30l3-29 5-27 7-27 8-23 10-23 10-19 12-19 12-17 13-16 7-8 15-16 15-14 10-8 17-13 18-12 21-12 16-8 20-9 30-10 24-6 22-4z" fill="#FDFDFD"/>
<path transform="translate(1181,688)" d="m0 0h23l16 4 14 7 9 7 5 4 9 12 7 15 2 9 1 10 1 376 3 23 5 17 5 12 8 14 11 13 7 7 14 9 16 8 21 6 19 3h31l19-3 18-5 16-7 14-9 10-9 9-10 7-11 8-17 5-17 3-23v-343l1-41 3-13 7-14 7-9 5-6 14-10 13-6 12-3h23l16 4 12 6 9 7 7 7 8 13 4 9 3 13 1 114v259l-1 23-3 24-6 25-8 23-11 23-13 21-13 16-9 10-12 12-14 11-18 13-22 12-22 10-30 10-27 6-28 4-11 1h-43l-33-4-29-6-26-8-22-9-24-12-15-10-12-9-11-9-19-19-9-11-11-15-13-23-8-19-6-18-5-22-3-20-1-10-1-23v-361l2-16 5-13 7-12 10-11 14-9 12-5z" fill="#FDFDFD"/>
<path transform="translate(365)" d="m0 0h81v2l25 4 9 1 3 3-1 7-3-1-2 5-2 3v4l5 2v3l-8 3-7 6-3 4-7 1-1 5-3 3-9 3-4 6-4 1 4 8-5 5-1-5v-4l-2 4-4 1v4l-3 2-5 2v7l-4 2-1 2h-3l-8 7-4 2v2l-5 3-13 13h-2l-2 4-4 2-2 4-4 4-4 7-3 2v5l-3 1-2 4-4 5-8 7-7 2-9 6-7 4-2 2h-3v2l-7 5h-2l-1 3-6 3-6 5-10 8-20 20h-2l-2 4-2 1-3 3-4 5-5 5-4 3-14 14h-3l-8 7-5 6-4 1-2 4-4-1 2-1 2-4h2l1-2 4-5 4-4h2v-5h2l1-4h-2v2h-2v2l-9 7-4 4h-3l-1 4h-4v3l-4-1-2 4h-3l-1 4-3 1-1 3-2 1-4 8h-2v2l-2 1-9 15-3 3-5 8-3 5 1 2v3l-3 1-1 3-3-1-1 4-2 4h-2l-1 6-7 7v3l5-2 4-4h2v-2h2l1-4 3 1-7 12-2 2-2 6-8 9-5 6-3 3-3 4-3 3-6 11-8 9-3 5h-2l-1 4-4 4h-2l-2 5-6 4-5 5-5 4h-5l-1 2-2 1-2 5-5 1 1-4h2l-1-4h-4l-2 6-7-1h-3l-2 1v-2h-8l-1 2-3-3 2-2-3-2-2-11-2-4-2-10 1-1v-9l-5-6-2-11h-3l-4 8-4-2-2-4-2-2v-2h2l-3-3v-24l7-42 7-30 12-36 10-24 8-16 9-17 13-21 13-18 11-14 11-13 7-7 7-8 11-11 8-7 14-12 17-13 21-14 15-9 20-11 29-13 28-10 30-8 31-6z" fill="#01B2FE"/>
<path transform="translate(2033,1652)" d="m0 0 5 3 5 26 2 7v10l-5 30-7 30-12 36-10 23-8 17-12 21-12 19-14 19-11 13-9 11-29 29-11 9-12 10-18 13-22 14-22 12-25 12-29 11-27 8-27 6-36 6-8 1h-63l5-5 8-2 1-7-3-1 1-2 4-2 3-3 1-3-3-4 1-4 14-5 2-3 6-1 4-1 1-5h8l1-1 17-2v-2l4 1 10-1 5-2 5-1v-4h2v2h9l8-3h7l9-3 3-2 7 1 1-3h2v3l5-1 1-4 3-1 4 1 3-3h6l6-2 7-2 22-11 13-7 8-4 4-4 6-3 3-3 9-4 5-7 5-1v-3h2l1-3 5-2 4-6 3-5 5-5 6-8 4-4 2-1 3-5 9-10 2-4h2v-2h2l1-4 10-13 2-5 4-7 7-12 3-8 4-5 3-9 4-10 3-4 2-10 1-1 1-8 2-5h2l-1-8 4-1-1-4h2v-7l-2-1v-8l1-2-1-3 4-2-2-9-1-3h3l-1-4 5-5 1-5 2-11 2-4h2v2l2-2 1-2h6 3l4-8 3-1 1-5h2v-2l3-3 7-1-1-1-3-2 7-3 1 4 5 2 1-8 3-7z" fill="#003CFD"/>
<path transform="translate(184,294)" d="m0 0 1 2-7 8-4 6-3 3v2l-2 1-6 12h-2v3l-4-1-3-1 1-5 8-9h2l2-4 4-4 3-6 5-3z" fill="#01B1FE"/>
<path transform="translate(203,51)" d="m0 0 8 1v4l-12 6-8 1-1-4 9-6z" fill="#057EFD"/>
</svg>
